<svg width="700" height="700" xmlns="http://www.w3.org/2000/svg"><rect x="0" y="0" width="700" height="700" stroke="0" fill="rgb(255, 255, 255)" opacity="1" /><circle cx="299.138902917667" cy="169.38598774950455" r="3" stroke="0" fill="rgb(0, 0, 0)" opacity="1" /><circle cx="55.92411441360432" cy="443.1860341816598" r="3" stroke="0" fill="rgb(0, 0, 0)" opacity="1" /><circle cx="418.82460401120693" cy="461.94012602256004" r="3" stroke="0" fill="rgb(0, 0, 0)" opacity="1" /><circle cx="304.83560542469917" cy="144.75961789145123" r="3" stroke="0" fill="rgb(0, 0, 0)" opacity="1" /><circle cx="154.23331573546943" cy="541.9456416639143" r="3" stroke="0" fill="rgb(0, 0, 0)" opacity="1" /><circle cx="271.74150303709575" cy="109.09225611639211" r="3" stroke="0" fill="rgb(0, 0, 0)" opacity="1" /><circle cx="396.290601008813" cy="77.01440168055763" r="3" stroke="0" fill="rgb(0, 0, 255)" opacity="1" /><circle cx="134.76462103573476" cy="387.81213483092546" r="3" stroke="0" fill="rgb(0, 0, 0)" opacity="1" /><circle cx="63.15836690266148" cy="683.0247731883825" r="3" stroke="0" fill="rgb(0, 0, 255)" opacity="1" /><circle cx="139.8959121852707" cy="671.6695954744877" r="3" stroke="0" fill="rgb(0, 0, 0)" opacity="1" /><circle cx="80.04814852118179" cy="566.5926930196888" r="3" stroke="0" fill="rgb(0, 0, 0)" opacity="1" /><circle cx="24.222158185309617" cy="39.37674247468815" r="3" stroke="0" fill="rgb(0, 0, 0)" opacity="1" /><circle cx="447.43949441808803" cy="98.1855213157103" r="3" stroke="0" fill="rgb(0, 0, 255)" opacity="1" /><circle cx="434.1379840702796" cy="204.46326215556022" r="3" stroke="0" fill="rgb(0, 0, 0)" opacity="1" /><circle cx="383.8575895684781" cy="676.6523099792948" r="3" stroke="0" fill="rgb(0, 0, 0)" opacity="1" /><circle cx="400.7378762167825" cy="137.5645485586177" r="3" stroke="0" fill="rgb(0, 0, 0)" opacity="1" /><circle cx="291.1798581926903" cy="133.5600516422384" r="3" stroke="0" fill="rgb(0, 0, 0)" opacity="1" /><circle cx="324.7847785889333" cy="565.4416669914417" r="3" stroke="0" fill="rgb(0, 0, 0)" opacity="1" /><circle cx="422.72025512900103" cy="688.971498200378" r="3" stroke="0" fill="rgb(0, 0, 255)" opacity="1" /><circle cx="114.12228033693096" cy="110.8975282229975" r="3" stroke="0" fill="rgb(0, 0, 0)" opacity="1" /><line x1="0.0" y1="0.0" x2="24.222158185309617" y2="39.37674247468815" stroke="black" /><line x1="24.222158185309617" y1="39.37674247468815" x2="114.12228033693096" y2="110.8975282229975" stroke="black" /><text x="24.222158185309617" y="39.37674247468815" stroke="black" fill="black" font-size="medium" font-family="serif">1</text><line x1="114.12228033693096" y1="110.8975282229975" x2="271.74150303709575" y2="109.09225611639211" stroke="black" /><line x1="271.74150303709575" y1="109.09225611639211" x2="304.83560542469917" y2="144.75961789145123" stroke="black" /><line x1="304.83560542469917" y1="144.75961789145123" x2="434.1379840702796" y2="204.46326215556022" stroke="black" /><line x1="434.1379840702796" y1="204.46326215556022" x2="447.43949441808803" y2="98.1855213157103" stroke="black" /><line x1="447.43949441808803" y1="98.1855213157103" x2="396.290601008813" y2="77.01440168055763" stroke="black" /><line x1="396.290601008813" y1="77.01440168055763" x2="400.7378762167825" y2="137.5645485586177" stroke="black" /><line x1="400.7378762167825" y1="137.5645485586177" x2="299.138902917667" y2="169.38598774950455" stroke="black" /><line x1="299.138902917667" y1="169.38598774950455" x2="134.76462103573476" y2="387.81213483092546" stroke="black" /><line x1="134.76462103573476" y1="387.81213483092546" x2="55.92411441360432" y2="443.1860341816598" stroke="black" /><line x1="55.92411441360432" y1="443.1860341816598" x2="80.04814852118179" y2="566.5926930196888" stroke="black" /><line x1="80.04814852118179" y1="566.5926930196888" x2="63.15836690266148" y2="683.0247731883825" stroke="black" /><line x1="63.15836690266148" y1="683.0247731883825" x2="139.8959121852707" y2="671.6695954744877" stroke="black" /><line x1="139.8959121852707" y1="671.6695954744877" x2="154.23331573546943" y2="541.9456416639143" stroke="black" /><line x1="154.23331573546943" y1="541.9456416639143" x2="324.7847785889333" y2="565.4416669914417" stroke="black" /><line x1="324.7847785889333" y1="565.4416669914417" x2="383.8575895684781" y2="676.6523099792948" stroke="black" /><line x1="383.8575895684781" y1="676.6523099792948" x2="422.72025512900103" y2="688.971498200378" stroke="black" /><line x1="422.72025512900103" y1="688.971498200378" x2="418.82460401120693" y2="461.94012602256004" stroke="black" /><line x1="418.82460401120693" y1="461.94012602256004" x2="291.1798581926903" y2="133.5600516422384" stroke="black" /><line x1="291.1798581926903" y1="133.5600516422384" x2="0.0" y2="0.0" stroke="black" /></svg>